# xmcd
#
# Track frame offsets: 
#        150
#        15802
#        29709
#        44602
#        60690
#        80004
#        104787
#        118806
#        144263
#        173266
#        190105
#
# Disc length: 2706 seconds
#
# Revision: 1
# Processed by: cddbd v1.5.2PL0 Copyright (c) Steve Scherf et al.
# Submitted via: ExactAudioCopy v1.0b3
#
DISCID=900a900b
DTITLE=Friedemann - Saitensprung
DYEAR=2007
DGENRE=Instrumental
TTITLE0=Afro Dite
TTITLE1=Ein Samer Kauboj
TTITLE2=Till
TTITLE3=Saitensprung
TTITLE4=Hitzig
TTITLE5=Eine kleine Zupfmusik
TTITLE6=Pia
TTITLE7=Calling Home
TTITLE8=Für Moni
TTITLE9=Sentimental Elegance
TTITLE10=County Road
EXTD=YEAR: 2007
EXTT0=
EXTT1=
EXTT2=
EXTT3=
EXTT4=
EXTT5=
EXTT6=
EXTT7=
EXTT8=
EXTT9=
EXTT10=
PLAYORDER=
